<?xml version="1.0" standalone="no"?>
<!DOCTYPE svg PUBLIC "-//W3C//DTD SVG 20010904//EN"
 "http://www.w3.org/TR/2001/REC-SVG-20010904/DTD/svg10.dtd">
<svg version="1.0" xmlns="http://www.w3.org/2000/svg"
 width="1980.000000pt" height="1980.000000pt" viewBox="0 0 1980.000000 1980.000000"
 preserveAspectRatio="xMidYMid meet">
<metadata>
Created by potrace 1.11, written by Peter Selinger 2001-2013
</metadata>
<g transform="translate(0.000000,1980.000000) scale(0.100000,-0.100000)"
fill="#000000" stroke="none">
<path d="M9479 19786 c-2 -2 -67 -7 -144 -10 -77 -4 -153 -8 -170 -10 -16 -2
-69 -7 -116 -10 -47 -4 -98 -9 -115 -10 -16 -2 -58 -7 -94 -11 -96 -10 -131
-14 -170 -19 -19 -3 -57 -8 -85 -11 -27 -3 -61 -7 -75 -10 -14 -2 -43 -7 -65
-10 -242 -34 -607 -104 -840 -161 -55 -13 -109 -26 -120 -29 -25 -5 -294 -78
-390 -106 -98 -28 -376 -118 -400 -129 -11 -5 -45 -16 -75 -26 -51 -16 -289
-103 -335 -123 -11 -4 -56 -23 -100 -41 -44 -17 -111 -46 -150 -62 -38 -17
-83 -37 -100 -44 -270 -117 -591 -276 -860 -427 -89 -50 -451 -265 -470 -279
-5 -4 -93 -63 -195 -130 -212 -141 -196 -130 -435 -308 -298 -222 -545 -429
-822 -687 -224 -209 -546 -540 -684 -704 -24 -28 -53 -61 -64 -73 -11 -12 -37
-43 -58 -68 -21 -26 -43 -53 -50 -60 -7 -7 -32 -38 -57 -68 -25 -30 -51 -62
-57 -70 -233 -283 -555 -749 -783 -1129 -112 -188 -133 -225 -230 -406 -50
-93 -207 -406 -240 -480 -13 -27 -36 -79 -53 -115 -53 -116 -127 -292 -188
-450 -33 -85 -64 -164 -69 -175 -4 -11 -15 -40 -23 -65 -9 -25 -32 -92 -52
-150 -110 -312 -252 -818 -310 -1103 -21 -101 -76 -379 -80 -404 -3 -18 -7
-45 -9 -60 -3 -16 -11 -68 -20 -118 -8 -49 -17 -115 -21 -145 -4 -30 -9 -63
-10 -72 -2 -9 -7 -48 -10 -85 -4 -37 -9 -76 -10 -85 -2 -9 -6 -48 -10 -85 -3
-37 -8 -79 -10 -93 -3 -14 -7 -63 -11 -110 -3 -47 -7 -101 -9 -120 -27 -278
-27 -1204 0 -1480 2 -19 6 -71 9 -115 4 -44 9 -98 11 -120 2 -22 7 -65 10 -95
3 -30 8 -71 10 -90 3 -19 7 -57 10 -85 3 -27 8 -61 10 -75 2 -14 9 -59 14
-100 6 -41 13 -86 15 -100 3 -14 14 -83 26 -155 12 -71 37 -206 56 -300 19
-93 37 -181 40 -195 11 -57 107 -433 135 -530 113 -394 286 -886 416 -1180 11
-25 35 -79 53 -120 19 -41 49 -109 68 -150 52 -115 245 -498 281 -558 17 -29
31 -55 31 -57 0 -16 297 -512 330 -552 5 -7 10 -15 10 -18 0 -3 46 -73 103
-157 56 -83 110 -162 119 -177 9 -14 21 -30 25 -36 5 -5 37 -50 73 -100 35
-49 67 -92 70 -95 3 -3 48 -61 100 -130 317 -419 781 -924 1175 -1280 159
-143 220 -197 239 -210 12 -8 26 -19 31 -26 6 -6 78 -66 160 -133 184 -148
148 -121 290 -227 206 -155 253 -188 490 -345 99 -65 185 -123 192 -129 7 -5
16 -10 21 -10 5 0 20 -9 33 -19 14 -10 39 -27 56 -37 404 -236 465 -270 719
-397 183 -92 260 -128 489 -232 300 -135 821 -322 1212 -434 216 -63 647 -168
758 -186 11 -2 70 -13 130 -24 127 -24 129 -24 257 -46 54 -9 115 -18 135 -20
21 -3 49 -7 63 -10 14 -3 48 -7 75 -10 28 -3 68 -8 90 -11 77 -11 90 -12 158
-19 37 -3 76 -8 85 -10 9 -1 61 -6 116 -10 54 -3 107 -8 117 -10 59 -12 391
-20 774 -20 430 1 591 6 825 30 25 2 81 7 125 10 44 3 87 8 95 10 8 2 46 6 83
10 37 3 76 8 86 10 10 2 42 6 72 10 30 3 65 8 79 10 14 3 47 7 75 11 27 3 135
20 240 39 104 19 205 36 223 40 19 3 71 14 115 24 45 11 96 22 112 25 17 3 39
7 50 10 16 4 253 63 325 81 430 105 1048 325 1570 560 105 47 556 270 575 284
6 5 51 30 100 56 247 132 702 418 965 608 121 87 410 305 420 316 3 3 39 33
80 66 70 56 344 290 380 325 9 8 61 56 116 107 137 126 345 334 489 488 66 71
127 136 136 145 13 14 170 197 283 330 11 14 46 56 76 95 30 38 60 77 67 85
196 244 460 625 662 953 50 82 91 150 91 152 0 2 27 49 60 105 33 56 60 103
60 105 0 2 17 34 39 72 45 81 199 384 269 533 171 361 350 825 478 1235 16 50
29 92 29 95 1 3 7 25 15 50 7 25 15 50 16 55 1 6 18 66 37 135 29 104 68 257
82 320 2 8 11 47 20 85 9 39 19 79 21 90 2 11 6 29 8 40 30 145 66 329 71 365
3 25 8 52 10 60 2 8 7 35 10 60 9 63 15 102 20 120 2 8 6 40 10 71 3 31 8 67
10 79 2 12 7 48 10 81 4 33 8 68 10 77 1 9 6 51 10 92 4 41 9 89 11 105 2 17
6 68 10 115 3 47 8 101 9 120 16 182 20 350 20 735 0 448 -4 564 -31 860 -3
39 -8 88 -9 110 -5 51 -15 153 -20 185 -4 26 -15 116 -20 160 -1 14 -5 45 -9
70 -4 25 -9 56 -11 70 -35 234 -40 261 -70 410 -8 41 -17 86 -19 100 -21 117
-133 578 -176 725 -12 39 -23 79 -25 89 -5 22 -81 266 -95 306 -5 14 -30 86
-55 160 -45 130 -146 403 -165 445 -5 11 -30 70 -55 130 -50 120 -50 118 -125
285 -294 648 -711 1341 -1147 1905 -135 175 -186 240 -192 245 -3 3 -28 32
-56 65 -303 364 -673 749 -990 1030 -43 39 -86 77 -95 85 -21 21 -306 258
-354 295 -38 30 -71 56 -92 74 -111 93 -598 434 -809 567 -80 51 -286 175
-335 202 -25 14 -74 42 -110 62 -170 98 -506 268 -710 360 -63 28 -137 62
-165 75 -81 37 -438 178 -590 233 -129 47 -288 100 -520 172 -161 50 -581 159
-719 186 -11 2 -88 17 -170 34 -83 16 -164 32 -181 35 -16 3 -41 7 -55 9 -89
16 -202 34 -260 42 -19 2 -46 6 -60 9 -14 3 -43 7 -65 10 -22 2 -56 6 -75 9
-19 2 -62 7 -95 11 -33 3 -71 8 -85 10 -14 3 -61 7 -105 11 -44 3 -93 8 -110
10 -16 2 -79 6 -140 10 -60 3 -121 8 -135 11 -28 6 -995 15 -1001 9z"/>
</g>
</svg>
